<?xml version="1.0" standalone="no"?>
<!DOCTYPE svg PUBLIC "-//W3C//DTD SVG 20010904//EN"
 "http://www.w3.org/TR/2001/REC-SVG-20010904/DTD/svg10.dtd">
<svg version="1.0" xmlns="http://www.w3.org/2000/svg"
 width="256.000000pt" height="256.000000pt" viewBox="0 0 256.000000 256.000000"
 preserveAspectRatio="xMidYMid meet">

<g transform="translate(0.000000,256.000000) scale(0.100000,-0.100000)"
fill="#000000" stroke="none">
<path d="M1821 2439 c-212 -41 -371 -243 -371 -468 1 -167 27 -217 256 -493
102 -123 194 -229 204 -236 11 -8 25 -10 33 -5 28 15 389 458 413 505 13 26
31 76 39 110 83 354 -214 658 -574 587z m202 -74 c126 -33 217 -106 274 -221
30 -62 37 -88 41 -153 6 -100 -21 -195 -75 -269 -57 -77 -327 -401 -335 -401
-16 -2 -157 180 -173 223 -33 86 -2 219 70 305 35 40 122 111 138 111 6 0 -2
-12 -18 -27 -37 -35 -95 -106 -123 -154 -27 -46 -55 -153 -47 -180 6 -19 12
-20 53 -14 63 9 161 55 209 99 22 19 55 64 74 98 33 62 34 65 34 183 0 138
-15 194 -75 272 -53 70 -132 108 -226 108 -76 0 -76 10 -1 24 66 14 118 12
180 -4z m-67 -76 c44 -21 114 -90 114 -112 0 -7 -29 -20 -69 -30 -243 -63
-341 -216 -301 -473 7 -46 11 -86 8 -89 -8 -9 -126 140 -153 193 -79 157 -48
345 76 456 62 56 113 74 208 75 56 1 85 -4 117 -20z"/>
<path d="M585 1346 c-223 -51 -407 -222 -475 -441 -91 -295 46 -620 321 -760
107 -55 170 -69 299 -69 100 0 126 4 195 28 204 71 354 224 417 426 34 110 32
285 -5 388 -36 103 -81 176 -157 252 -123 122 -257 180 -430 186 -66 2 -127
-1 -165 -10z m285 -91 c189 -50 345 -206 395 -395 22 -83 19 -224 -6 -306 -43
-139 -143 -262 -269 -328 -225 -119 -489 -78 -663 102 -107 112 -157 236 -157
393 0 251 165 467 410 535 63 17 224 17 290 -1z"/>
<path d="M465 1025 c-21 -20 -25 -34 -25 -80 l0 -55 285 0 285 0 0 80 0 80
-260 0 -261 0 -24 -25z"/>
<path d="M442 583 l3 -208 80 0 80 0 3 128 3 127 175 0 c172 0 175 0 199 25
21 20 25 34 25 80 l0 55 -285 0 -285 0 2 -207z"/>
<path d="M848 532 l-148 -3 0 -74 0 -75 145 0 c80 0 148 -1 153 -2 10 -4 15
144 5 151 -4 3 -74 5 -155 3z"/>
</g>
</svg>
